<svg width="0" height="0" class="hidden">
  <symbol viewBox="0 0 60 60" xmlns="http://www.w3.org/2000/svg" id="editor">
    <path d="M53.586 43.687l-3.535-3.535L48 38.1V17a5.006 5.006 0 0 0-5-5h-2v-1a5.006 5.006 0 0 0-5-5h-2V5a5.006 5.006 0 0 0-5-5H5a5.006 5.006 0 0 0-5 5v24a5.006 5.006 0 0 0 5 5h2v1a5.006 5.006 0 0 0 5 5h2v1a5.006 5.006 0 0 0 5 5h17.1l7.586 7.586 4.949 4.949a5 5 0 0 0 7.071 0l2.829-2.828a5.006 5.006 0 0 0 0-7.071zm-7.068 5.654l-2.119 2.119-2.122-2.122 1.414-1.414a1 1 0 0 0-1.414-1.414l-1.414 1.414L28 35.071a2.936 2.936 0 0 0 1.71-2.533 3 3 0 0 0 2.83-2.827A2.934 2.934 0 0 0 35.07 28l12.859 12.858-2.829 2.829a1 1 0 1 0 1.415 1.413l2.828-2.829 2.122 2.122zM21.066 21.063l3.734 1.561a4.845 4.845 0 0 1-2.17 2.172zM25.3 25.3a7.028 7.028 0 0 0 1.345-1.9l6.509 2.725a.988.988 0 0 1-.075 1.3 1.02 1.02 0 0 1-1.413 0 1 1 0 0 0-1.415 1.414 1 1 0 0 1-1.414 1.414 1 1 0 1 0-1.414 1.414.991.991 0 0 1-1.3 1.489L23.4 26.644a7.059 7.059 0 0 0 1.9-1.344zM5 32a3 3 0 0 1-3-3V5a3 3 0 0 1 3-3h24a3 3 0 0 1 3 3v1H12a5.006 5.006 0 0 0-5 5v21zm7 6a3 3 0 0 1-3-3V11a3 3 0 0 1 3-3h24a3 3 0 0 1 3 3v1H19a5.006 5.006 0 0 0-5 5v21zm7 6a3 3 0 0 1-3-3V17a3 3 0 0 1 3-3h24a3 3 0 0 1 3 3v19.1L34.5 24.6a2.149 2.149 0 0 0-.327-.222l-12.326-5.157a2 2 0 0 0-2.63 2.618l5.158 12.322v.007a1.2 1.2 0 0 0 .216.321L34.1 44zm38.122 10.293l-2.829 2.828a3.073 3.073 0 0 1-4.243 0l-4.242-4.242 1.414-1.415 1.414 1.415a1 1 0 0 0 1.414-1.414l-1.414-1.415 4.243-4.242 4.243 4.242a3.005 3.005 0 0 1 0 4.243z"></path>
    <path d="M51.464 54.293a1 1 0 1 0 1.415 1.413 1 1 0 0 0-1.415-1.413zM33.08 34.494a1 1 0 1 0-1.414 1.414l8.485 8.486a1 1 0 0 0 1.414-1.415zm2.828-2.828a1 1 0 1 0-1.414 1.414l8.485 8.484a1 1 0 0 0 1.415-1.414z"></path>
  </symbol>
  <symbol xmlns="http://www.w3.org/2000/svg" viewBox="0 0 490.667 490.667" id="my-widgets">
    <path d="M437.333 0h-384C23.915 0 0 23.936 0 53.333v384c0 29.397 23.915 53.333 53.333 53.333h384c29.419 0 53.333-23.936 53.333-53.333v-384C490.667 23.936 466.752 0 437.333 0zm32 437.333c0 17.643-14.357 32-32 32h-384c-17.643 0-32-14.357-32-32V106.667h448v330.666zm0-352h-448v-32c0-17.643 14.357-32 32-32h384c17.643 0 32 14.357 32 32v32z"></path>
    <circle cx="53.333" cy="53.333" r="10.667"></circle>
    <circle cx="96" cy="53.333" r="10.667"></circle>
    <circle cx="138.667" cy="53.333" r="10.667"></circle>
    <path d="M224 149.333H74.667C68.779 149.333 64 154.112 64 160v106.667c0 5.888 4.779 10.667 10.667 10.667H224c5.888 0 10.667-4.779 10.667-10.667V160c0-5.888-4.779-10.667-10.667-10.667zM213.333 256h-128v-85.333h128V256zM416 149.333H266.667c-5.888 0-10.667 4.779-10.667 10.667v106.667c0 5.888 4.779 10.667 10.667 10.667H416c5.888 0 10.667-4.779 10.667-10.667V160c0-5.888-4.779-10.667-10.667-10.667zM405.333 256h-128v-85.333h128V256zM224 298.667H74.667c-5.888 0-10.667 4.779-10.667 10.667V416c0 5.888 4.779 10.667 10.667 10.667H224c5.888 0 10.667-4.779 10.667-10.667V309.333c0-5.888-4.779-10.666-10.667-10.666zm-10.667 106.666h-128V320h128v85.333zM416 298.667H266.667c-5.888 0-10.667 4.779-10.667 10.667V416c0 5.888 4.779 10.667 10.667 10.667H416c5.888 0 10.667-4.779 10.667-10.667V309.333c0-5.888-4.779-10.666-10.667-10.666zm-10.667 106.666h-128V320h128v85.333z"></path>
  </symbol>
  <symbol xmlns="http://www.w3.org/2000/svg" viewBox="0 0 512 512" id="search">
    <path d="M458.667 10.667H53.333C23.915 10.667 0 34.603 0 64v384c0 29.397 23.915 53.333 53.333 53.333h405.333C488.085 501.333 512 477.397 512 448V64c0-29.397-23.915-53.333-53.333-53.333zm32 437.333c0 17.643-14.357 32-32 32H53.333c-17.643 0-32-14.357-32-32V117.333h469.333V448zm0-352H21.333V64c0-17.643 14.357-32 32-32h405.333c17.643 0 32 14.357 32 32v32z"></path>
    <circle cx="53.333" cy="64" r="10.667"></circle>
    <circle cx="96" cy="64" r="10.667"></circle>
    <circle cx="138.667" cy="64" r="10.667"></circle>
    <path d="M466.197 419.136l-57.749-57.749c11.243-14.443 18.219-32.363 18.219-52.053 0-47.061-38.272-85.333-85.333-85.333C294.272 224 256 262.272 256 309.333c0 47.061 38.272 85.333 85.333 85.333 19.669 0 37.589-6.955 52.032-18.197l57.749 57.749c2.091 2.069 4.821 3.115 7.552 3.115s5.461-1.045 7.531-3.115c4.16-4.159 4.16-10.922 0-15.082zm-124.864-45.803c-35.285 0-64-28.715-64-64s28.715-64 64-64 64 28.715 64 64-28.714 64-64 64zM160 160H53.333c-5.888 0-10.667 4.779-10.667 10.667s4.779 10.667 10.667 10.667H160c5.888 0 10.667-4.779 10.667-10.667S165.888 160 160 160zm128 0h-64c-5.888 0-10.667 4.779-10.667 10.667s4.779 10.667 10.667 10.667h64c5.888 0 10.667-4.779 10.667-10.667S293.888 160 288 160zm170.667 0H352c-5.888 0-10.667 4.779-10.667 10.667s4.779 10.667 10.667 10.667h106.667c5.888 0 10.667-4.779 10.667-10.667S464.555 160 458.667 160zm-341.334 64h-64c-5.888 0-10.667 4.779-10.667 10.667s4.779 10.667 10.667 10.667h64c5.888 0 10.667-4.779 10.667-10.667S123.221 224 117.333 224zm149.334 0h-85.333c-5.888 0-10.667 4.779-10.667 10.667s4.779 10.667 10.667 10.667h85.333c5.888 0 10.667-4.779 10.667-10.667S272.555 224 266.667 224zM224 288h-64c-5.888 0-10.667 4.779-10.667 10.667s4.779 10.667 10.667 10.667h64c5.888 0 10.667-4.779 10.667-10.667S229.888 288 224 288zm-128 0H53.333c-5.888 0-10.667 4.779-10.667 10.667s4.779 10.667 10.667 10.667H96c5.888 0 10.667-4.779 10.667-10.667S101.888 288 96 288zm85.333 64h-128c-5.888 0-10.667 4.779-10.667 10.667s4.779 10.667 10.667 10.667h128c5.888 0 10.667-4.779 10.667-10.667S187.221 352 181.333 352zM224 416H53.333c-5.888 0-10.667 4.779-10.667 10.667s4.779 10.667 10.667 10.667H224c5.888 0 10.667-4.779 10.667-10.667S229.888 416 224 416z"></path>
  </symbol>
  <symbol viewBox="0 0 512 512" xmlns="http://www.w3.org/2000/svg" id="widget-manager">
    <path d="M497 181h-17V76c0-8.284-6.716-15-15-15s-15 6.716-15 15v105h-30v-75c0-8.284-6.716-15-15-15s-15 6.716-15 15v75h-30v-45c0-8.284-6.716-15-15-15s-15 6.716-15 15v45h-15c-8.284 0-15 6.716-15 15s6.716 15 15 15h182c8.284 0 15-6.716 15-15s-6.716-15-15-15z"></path>
    <path d="M465 241H270V46c0-8.284-6.716-15-15-15-92.013 0-173.907 55.575-208.287 139.76l-14.715-4.905c-7.853-2.618-16.354 1.628-18.974 9.489C4.382 201.28 0 228.417 0 256c0 90.108 47.014 170.658 119.821 216.259 7.009 4.39 16.281 2.28 20.682-4.762l8.215-13.143C181.276 471.824 217.718 481 255 481c124.351 0 225-100.633 225-225 0-8.284-6.716-15-15-15zM240 61.571v173.618l-164.761-54.92C103.545 112.929 167.11 67.131 240 61.571zm-116.72 376.88C64.601 396.14 30 328.994 30 256c0-19.293 2.425-38.331 7.222-56.781l194.961 64.987zM255 451c-31.647 0-62.585-7.625-90.341-22.152L263.314 271h186.115C441.744 371.542 357.477 451 255 451z"></path>
  </symbol>
  <symbol xmlns="http://www.w3.org/2000/svg" viewBox="0 0 490.667 490.667" id="widget-store">
    <path d="M437.333 10.667h-384C23.915 10.667 0 34.603 0 64v362.667C0 456.064 23.915 480 53.333 480h384c29.419 0 53.333-23.936 53.333-53.333V64c.001-29.397-23.914-53.333-53.333-53.333zm32 416c0 17.643-14.357 32-32 32h-384c-17.643 0-32-14.357-32-32V117.333h448v309.334zm0-330.667h-448V64c0-17.643 14.357-32 32-32h384c17.643 0 32 14.357 32 32v32z"></path>
    <circle cx="53.333" cy="64" r="10.667"></circle>
    <circle cx="96" cy="64" r="10.667"></circle>
    <circle cx="138.667" cy="64" r="10.667"></circle>
    <path d="M295.531 269.803c-4.16-4.16-10.923-4.16-15.083 0L256 294.251v-80.917c0-5.888-4.779-10.667-10.667-10.667s-10.667 4.779-10.667 10.667v80.939l-24.469-24.469c-4.16-4.16-10.923-4.16-15.083 0s-4.16 10.923 0 15.083l42.667 42.667a10.473 10.473 0 0 0 3.413 2.261c.021 0 .043.043.064.043h.021a10.66 10.66 0 0 0 4.053.811c1.365 0 2.752-.277 4.032-.789a10.786 10.786 0 0 0 3.499-2.325l42.667-42.667c4.161-4.163 4.161-10.925.001-15.085z"></path>
    <path d="M330.667 309.333c-5.888 0-10.667 4.779-10.667 10.667v32H170.667v-32c0-5.888-4.779-10.667-10.667-10.667s-10.667 4.779-10.667 10.667v42.667c0 5.888 4.779 10.667 10.667 10.667h170.667c5.888 0 10.667-4.779 10.667-10.667V320c-.001-5.888-4.779-10.667-10.667-10.667z"></path>
  </symbol>
</svg>

<svg class="icon">
  <use xlink:href="#editor"></use>
</svg>
<svg class="icon">
  <use xlink:href="#my-widgets"></use>
</svg>
<svg class="icon">
  <use xlink:href="#search"></use>
</svg>
<svg class="icon">
  <use xlink:href="#widget-manager"></use>
</svg>
<svg class="icon">
  <use xlink:href="#widget-store"></use>
</svg>
