<svg width="0" height="0" class="hidden">
  <symbol xmlns="http://www.w3.org/2000/svg" viewBox="0 0 480.008 480.008" id="data-cruncher">
    <path d="M477.004 465.756l-40-32a7.999 7.999 0 0 0-5-1.752h-76.256l-26.664-32h110.92c22.08-.026 39.974-17.92 40-40v-320c-.026-22.08-17.92-39.974-40-40h-400c-22.08.026-39.974 17.92-40 40v320c.026 22.08 17.92 39.974 40 40h110.92l-26.664 32H48.004a7.999 7.999 0 0 0-5 1.752l-40 32a8 8 0 0 0 5 14.248h464a8 8 0 0 0 5-14.248zm-437-81.752c-13.255 0-24-10.745-24-24v-320c0-13.255 10.745-24 24-24h400c13.255 0 24 10.745 24 24v320c0 13.255-10.745 24-24 24h-400zm131.744 16H308.26l26.664 32h-189.84l26.664-32zm-140.936 64l20-16h378.4l19.984 16H30.812z"></path>
    <path d="M440.004 32.004h-400a8 8 0 0 0-8 8v288a8 8 0 0 0 8 8h400a8 8 0 0 0 8-8v-288a8 8 0 0 0-8-8zm-8 288h-384v-272h384v272zm-232 32h80v16h-80z"></path>
    <path d="M360.004 160.004h32a8 8 0 0 0 8-8v-32a8 8 0 0 0-8-8h-32a8 8 0 0 0-8 8v8h-56a7.998 7.998 0 0 0-5.208 1.928l-12.88 11.04-15.056-25.088a8 8 0 0 0-6.856-3.88h-72v-8a8 8 0 0 0-8-8h-96a8 8 0 0 0-8 8v32a8 8 0 0 0 8 8h96a8 8 0 0 0 8-8v-8h67.472l14.128 23.528-28.56 24.472h-53.04v-8a8 8 0 0 0-8-8h-96a8 8 0 0 0-8 8v32a8 8 0 0 0 8 8h96a8 8 0 0 0 8-8v-8h56a7.998 7.998 0 0 0 5.208-1.928l28.728-24.624 20.232 33.752-41.848 48.8h-68.32v-16a8 8 0 0 0-8-8h-96a8 8 0 0 0-8 8v32a8 8 0 0 0 8 8h96a8 8 0 0 0 8-8h72a8 8 0 0 0 6.072-2.792l45.608-53.208h44.32v8a8 8 0 0 0 8 8h32a8 8 0 0 0 8-8v-32a8 8 0 0 0-8-8h-32a8 8 0 0 0-8 8v8h-43.472l-22.264-37.112 12.696-10.888h53.04v8a8 8 0 0 0 8 8zm8-32h16v16h-16v-16zm-200 0h-80v-16h80v16zm0 64h-80v-16h80v16zm0 64h-80v-16h80v16zm200-64h16v16h-16v-16z"></path>
  </symbol>
  <symbol viewBox="0 0 60 60" xmlns="http://www.w3.org/2000/svg" id="data-lake">
    <path d="M16 10a3 3 0 1 0 0-6 3 3 0 0 0 0 6zm0-4a1 1 0 1 1 0 2 1 1 0 0 1 0-2z"></path>
    <circle cx="22" cy="7" r="1"></circle>
    <path d="M30 8h16a1 1 0 0 0 0-2H30a1 1 0 0 0 0 2zM16 26a3 3 0 1 0 0-6 3 3 0 0 0 0 6zm0-4a1 1 0 1 1 0 2 1 1 0 0 1 0-2z"></path>
    <circle cx="22" cy="23" r="1"></circle>
    <path d="M30 24h16a1 1 0 0 0 0-2H30a1 1 0 0 0 0 2z"></path>
    <path d="M59.343 38.062a1 1 0 0 0-1.108.3 1.4 1.4 0 0 1-2.338 0 3.54 3.54 0 0 0-2.7-1.3 3.461 3.461 0 0 0-2.2.824V35a3 3 0 0 0-2-2.816v-2.368A3 3 0 0 0 51 27v-8a3 3 0 0 0-2-2.816v-2.368A3 3 0 0 0 51 11V3a3 3 0 0 0-3-3H12a3 3 0 0 0-3 3v8a3 3 0 0 0 2 2.816v2.368A3 3 0 0 0 9 19v8a3 3 0 0 0 2 2.816v2.368A3 3 0 0 0 9 35v2.875a3.464 3.464 0 0 0-2.2-.823 3.548 3.548 0 0 0-2.7 1.3 1.394 1.394 0 0 1-2.334 0A1 1 0 0 0 0 39v18a3 3 0 0 0 3 3h54a3 3 0 0 0 3-3V39a1 1 0 0 0-.657-.938zM13 30h34v2H13zm0-16h34v2H13zM11 3a1 1 0 0 1 1-1h36a1 1 0 0 1 1 1v8a1 1 0 0 1-1 1H12a1 1 0 0 1-1-1zm0 16a1 1 0 0 1 1-1h36a1 1 0 0 1 1 1v8a1 1 0 0 1-1 1H12a1 1 0 0 1-1-1zm1 15h36a1 1 0 0 1 1 1v3.887a1.6 1.6 0 0 1-.836-.533 3.444 3.444 0 0 0-5.4 0 1.477 1.477 0 0 1-2.337 0 3.445 3.445 0 0 0-5.4 0 1.477 1.477 0 0 1-2.338 0 3.444 3.444 0 0 0-5.4 0 1.477 1.477 0 0 1-2.337 0 3.445 3.445 0 0 0-5.4 0 1.476 1.476 0 0 1-2.337 0 3.445 3.445 0 0 0-5.4 0 1.576 1.576 0 0 1-.832.53V35A1 1 0 0 1 12 34zm46 23a1 1 0 0 1-1 1H3a1 1 0 0 1-1-1V40.859a3.437 3.437 0 0 0 3.632-1.216 1.476 1.476 0 0 1 2.337 0 3.444 3.444 0 0 0 5.4 0 1.477 1.477 0 0 1 2.338 0 3.445 3.445 0 0 0 5.4 0 1.476 1.476 0 0 1 2.336 0 3.444 3.444 0 0 0 5.4 0 1.477 1.477 0 0 1 2.338 0 3.444 3.444 0 0 0 5.4 0 1.476 1.476 0 0 1 2.336 0 3.445 3.445 0 0 0 5.4 0 1.477 1.477 0 0 1 2.338 0 3.443 3.443 0 0 0 5.395 0 1.477 1.477 0 0 1 2.338 0A3.432 3.432 0 0 0 58 40.859z"></path>
    <path d="M9 45a1.61 1.61 0 0 1 1.231.639A3.613 3.613 0 0 0 13 47a3.541 3.541 0 0 0 2.706-1.291.946.946 0 0 0 .068-.074 1.534 1.534 0 0 1 2.455 0 1 1 0 0 0 1.542-1.274A3.614 3.614 0 0 0 17 43a3.537 3.537 0 0 0-2.7 1.291.772.772 0 0 0-.067.074 1.534 1.534 0 0 1-2.46 0A3.612 3.612 0 0 0 9 43a3.613 3.613 0 0 0-2.77 1.361 1 1 0 1 0 1.542 1.274A1.6 1.6 0 0 1 9 45zm25 2a3.537 3.537 0 0 0-2.7 1.291.772.772 0 0 0-.067.074 1.534 1.534 0 0 1-2.46 0A3.612 3.612 0 0 0 26 47a3.613 3.613 0 0 0-2.77 1.361 1 1 0 0 0 1.542 1.274 1.505 1.505 0 0 1 2.459 0A3.613 3.613 0 0 0 30 51a3.541 3.541 0 0 0 2.706-1.291.946.946 0 0 0 .068-.074 1.534 1.534 0 0 1 2.455 0 1 1 0 1 0 1.542-1.274A3.614 3.614 0 0 0 34 47zm-15 5a3.537 3.537 0 0 0-2.7 1.291.772.772 0 0 0-.067.074 1.534 1.534 0 0 1-2.46 0A3.612 3.612 0 0 0 11 52a3.613 3.613 0 0 0-2.77 1.361 1 1 0 1 0 1.542 1.274 1.505 1.505 0 0 1 2.459 0A3.613 3.613 0 0 0 15 56a3.541 3.541 0 0 0 2.706-1.291.946.946 0 0 0 .068-.074 1.534 1.534 0 0 1 2.455 0 1 1 0 1 0 1.542-1.274A3.614 3.614 0 0 0 19 52zm30 0a3.537 3.537 0 0 0-2.7 1.291.772.772 0 0 0-.067.074 1.534 1.534 0 0 1-2.46 0A3.612 3.612 0 0 0 41 52a3.613 3.613 0 0 0-2.77 1.361 1 1 0 0 0 1.542 1.274 1.505 1.505 0 0 1 2.459 0A3.613 3.613 0 0 0 45 56a3.541 3.541 0 0 0 2.706-1.291.946.946 0 0 0 .068-.074 1.534 1.534 0 0 1 2.455 0 1 1 0 1 0 1.542-1.274A3.614 3.614 0 0 0 49 52zm2-9a3.537 3.537 0 0 0-2.7 1.291.772.772 0 0 0-.067.074 1.534 1.534 0 0 1-2.46 0A3.612 3.612 0 0 0 43 43a3.613 3.613 0 0 0-2.77 1.361 1 1 0 0 0 1.542 1.274 1.505 1.505 0 0 1 2.459 0A3.613 3.613 0 0 0 47 47a3.541 3.541 0 0 0 2.706-1.291.946.946 0 0 0 .068-.074 1.534 1.534 0 0 1 2.455 0 1 1 0 1 0 1.542-1.274A3.614 3.614 0 0 0 51 43z"></path>
  </symbol>
  <symbol viewBox="0 0 512 512" xmlns="http://www.w3.org/2000/svg" id="exported-widgets">
    <path d="M497 181h-17V76c0-8.284-6.716-15-15-15s-15 6.716-15 15v105h-30v-75c0-8.284-6.716-15-15-15s-15 6.716-15 15v75h-30v-45c0-8.284-6.716-15-15-15s-15 6.716-15 15v45h-15c-8.284 0-15 6.716-15 15s6.716 15 15 15h182c8.284 0 15-6.716 15-15s-6.716-15-15-15z"></path>
    <path d="M465 241H270V46c0-8.284-6.716-15-15-15-92.013 0-173.907 55.575-208.287 139.76l-14.715-4.905c-7.853-2.618-16.354 1.628-18.974 9.489C4.382 201.28 0 228.417 0 256c0 90.108 47.014 170.658 119.821 216.259 7.009 4.39 16.281 2.28 20.682-4.762l8.215-13.143C181.276 471.824 217.718 481 255 481c124.351 0 225-100.633 225-225 0-8.284-6.716-15-15-15zM240 61.571v173.618l-164.761-54.92C103.545 112.929 167.11 67.131 240 61.571zm-116.72 376.88C64.601 396.14 30 328.994 30 256c0-19.293 2.425-38.331 7.222-56.781l194.961 64.987zM255 451c-31.647 0-62.585-7.625-90.341-22.152L263.314 271h186.115C441.744 371.542 357.477 451 255 451z"></path>
  </symbol>
  <symbol viewBox="0 0 505.119 505.119" xmlns="http://www.w3.org/2000/svg" id="functions">
    <path d="M489.119 0H16C7.163 0 0 7.164 0 16v473.118c0 8.836 7.163 16 16 16h473.119c8.837 0 16-7.164 16-16V16c0-8.836-7.163-16-16-16zm-16 473.119H32V32h441.119z"></path>
    <path d="M77.771 391.924h5.275c30.638 0 55.563-24.926 55.563-55.563v-43.345h13.458c8.837 0 16-7.164 16-16s-7.163-16-16-16h-13.458v-92.257c0-12.993 10.57-23.563 23.563-23.563 8.837 0 16-7.164 16-16s-7.163-16-16-16c-30.638 0-55.563 24.926-55.563 55.563v92.257H90.438c-8.837 0-16 7.164-16 16s7.163 16 16 16h16.171v43.345c0 12.993-10.57 23.563-23.563 23.563h-5.275c-8.837 0-16 7.164-16 16s7.163 16 16 16zm186.753-183.681c0 8.836 7.163 16 16 16h3.413c9.634 0 17.472 7.837 17.472 17.471v21.692c0 9.633-7.838 17.471-17.472 17.471h-3.413c-8.837 0-16 7.164-16 16s7.163 16 16 16h3.413c12.898 0 24.656-4.967 33.471-13.082 8.816 8.115 20.573 13.082 33.471 13.082h3.414c8.837 0 16-7.164 16-16s-7.163-16-16-16h-3.414c-9.634 0-17.471-7.837-17.471-17.471v-21.692c0-9.633 7.837-17.471 17.471-17.471h3.414c8.837 0 16-7.164 16-16s-7.163-16-16-16h-3.414c-12.898 0-24.655 4.967-33.471 13.082-8.816-8.115-20.573-13.082-33.471-13.082h-3.413c-8.836 0-16 7.163-16 16z"></path>
    <path d="M260.218 358.787c8.837 0 16-7.164 16-16s-7.163-16-16-16c-22.744 0-41.248-18.503-41.248-41.248v-65.96c0-22.744 18.504-41.248 41.248-41.248 8.837 0 16-7.164 16-16s-7.163-16-16-16c-40.389 0-73.248 32.859-73.248 73.248v65.96c0 40.389 32.859 73.248 73.248 73.248zm109.883-180.455c22.744 0 41.248 18.503 41.248 41.248v65.96c0 22.744-18.504 41.248-41.248 41.248-8.837 0-16 7.164-16 16s7.163 16 16 16c40.389 0 73.248-32.859 73.248-73.248v-65.96c0-40.389-32.859-73.248-73.248-73.248-8.837 0-16 7.164-16 16s7.163 16 16 16z"></path>
  </symbol>
  <symbol viewBox="0 0 512 512" xmlns="http://www.w3.org/2000/svg" id="help">
    <path d="M512 346.5c0-74.629-50.285-139.832-121.195-159.48C386.348 83.14 300.457 0 195.5 0 87.7 0 0 87.7 0 195.5c0 35.133 9.352 69.34 27.11 99.371L.718 390.277l95.41-26.386c27.605 16.324 58.746 25.52 90.887 26.906C206.66 461.71 271.867 512 346.5 512c29.79 0 58.758-7.934 84.21-23.008l80.567 22.285-22.285-80.566C504.066 405.258 512 376.289 512 346.5zm-411.137-15.047l-57.117 15.8 15.8-57.116-3.6-5.633C38.972 257.949 30 227.172 30 195.5 30 104.242 104.242 30 195.5 30S361 104.242 361 195.5 286.758 361 195.5 361c-31.672 0-62.445-8.973-89.004-25.945zm367.39 136.8l-42.382-11.726-5.66 3.684C398.27 474.465 372.777 482 346.5 482c-58.656 0-110.2-37.926-128.46-92.309 89.82-10.355 161.296-81.832 171.655-171.656C444.075 236.301 482 287.844 482 346.5c0 26.277-7.535 51.77-21.79 73.71l-3.683 5.661zm0 0"></path>
    <path d="M180.5 271h30v30h-30zm45-121c0 8.52-3.469 16.383-9.766 22.145l-35.234 32.25V241h30v-23.395l25.488-23.328C248.387 182.93 255.5 166.793 255.5 150c0-33.086-26.914-60-60-60s-60 26.914-60 60h30c0-16.543 13.457-30 30-30s30 13.457 30 30zm0 0"></path>
  </symbol>
  <symbol viewBox="0 0 512 512" xmlns="http://www.w3.org/2000/svg" id="settings">
    <path d="M272.066 512h-32.133c-25.989 0-47.134-21.144-47.134-47.133v-10.871a206.698 206.698 0 0 1-32.097-13.323l-7.704 7.704c-18.659 18.682-48.548 18.134-66.665-.007l-22.711-22.71c-18.149-18.129-18.671-48.008.006-66.665l7.698-7.698A206.714 206.714 0 0 1 58.003 319.2h-10.87C21.145 319.2 0 298.056 0 272.067v-32.134C0 213.944 21.145 192.8 47.134 192.8h10.87a206.755 206.755 0 0 1 13.323-32.097L63.623 153c-18.666-18.646-18.151-48.528.006-66.665l22.713-22.712c18.159-18.184 48.041-18.638 66.664.006l7.697 7.697A206.893 206.893 0 0 1 192.8 58.003v-10.87C192.8 21.144 213.944 0 239.934 0h32.133C298.056 0 319.2 21.144 319.2 47.133v10.871a206.698 206.698 0 0 1 32.097 13.323l7.704-7.704c18.659-18.682 48.548-18.134 66.665.007l22.711 22.71c18.149 18.129 18.671 48.008-.006 66.665l-7.698 7.698a206.714 206.714 0 0 1 13.323 32.097h10.87c25.989 0 47.134 21.144 47.134 47.133v32.134c0 25.989-21.145 47.133-47.134 47.133h-10.87a206.755 206.755 0 0 1-13.323 32.097l7.704 7.704c18.666 18.646 18.151 48.528-.006 66.665l-22.713 22.712c-18.159 18.184-48.041 18.638-66.664-.006l-7.697-7.697a206.893 206.893 0 0 1-32.097 13.323v10.871c0 25.987-21.144 47.131-47.134 47.131zM165.717 409.17a176.812 176.812 0 0 0 45.831 19.025 14.999 14.999 0 0 1 11.252 14.524v22.148c0 9.447 7.687 17.133 17.134 17.133h32.133c9.447 0 17.134-7.686 17.134-17.133v-22.148a14.999 14.999 0 0 1 11.252-14.524 176.812 176.812 0 0 0 45.831-19.025 15 15 0 0 1 18.243 2.305l15.688 15.689c6.764 6.772 17.626 6.615 24.224.007l22.727-22.726c6.582-6.574 6.802-17.438.006-24.225l-15.695-15.695a15 15 0 0 1-2.305-18.242 176.78 176.78 0 0 0 19.024-45.831 15 15 0 0 1 14.524-11.251h22.147c9.447 0 17.134-7.686 17.134-17.133v-32.134c0-9.447-7.687-17.133-17.134-17.133H442.72a15 15 0 0 1-14.524-11.251 176.815 176.815 0 0 0-19.024-45.831 15 15 0 0 1 2.305-18.242l15.689-15.689c6.782-6.774 6.605-17.634.006-24.225l-22.725-22.725c-6.587-6.596-17.451-6.789-24.225-.006l-15.694 15.695a15 15 0 0 1-18.243 2.305 176.812 176.812 0 0 0-45.831-19.025 14.999 14.999 0 0 1-11.252-14.524v-22.15c0-9.447-7.687-17.133-17.134-17.133h-32.133c-9.447 0-17.134 7.686-17.134 17.133v22.148a14.999 14.999 0 0 1-11.252 14.524 176.812 176.812 0 0 0-45.831 19.025 15.002 15.002 0 0 1-18.243-2.305l-15.688-15.689c-6.764-6.772-17.627-6.615-24.224-.007l-22.727 22.726c-6.582 6.574-6.802 17.437-.006 24.225l15.695 15.695a15 15 0 0 1 2.305 18.242 176.78 176.78 0 0 0-19.024 45.831 15 15 0 0 1-14.524 11.251H47.134C37.687 222.8 30 230.486 30 239.933v32.134c0 9.447 7.687 17.133 17.134 17.133h22.147a15 15 0 0 1 14.524 11.251 176.815 176.815 0 0 0 19.024 45.831 15 15 0 0 1-2.305 18.242l-15.689 15.689c-6.782 6.774-6.605 17.634-.006 24.225l22.725 22.725c6.587 6.596 17.451 6.789 24.225.006l15.694-15.695c3.568-3.567 10.991-6.594 18.244-2.304z"></path>
    <path d="M256 367.4c-61.427 0-111.4-49.974-111.4-111.4S194.573 144.6 256 144.6 367.4 194.574 367.4 256 317.427 367.4 256 367.4zm0-192.8c-44.885 0-81.4 36.516-81.4 81.4s36.516 81.4 81.4 81.4 81.4-36.516 81.4-81.4-36.515-81.4-81.4-81.4z"></path>
  </symbol>
  <symbol xmlns="http://www.w3.org/2000/svg" viewBox="0 0 512.002 512.002" id="workspace">
    <path d="M339.001 309c-5.52 0-10 4.48-10 10s4.48 10 10 10 10-4.48 10-10-4.48-10-10-10zm-186 143c-5.52 0-10 4.48-10 10s4.48 10 10 10 10-4.48 10-10-4.48-10-10-10z"></path>
    <path d="M442.001 0c-5.523 0-10 4.478-10 10v30h-43V10c0-4.055-2.449-7.708-6.199-9.25a10.005 10.005 0 0 0-10.912 2.219L335.272 40H80.001V10c0-5.522-4.477-10-10-10-38.598 0-70 31.402-70 70v249c0 2.756.229 5.558.68 8.326C4.548 351.084 26.671 369 52.141 369h409.86c27.57 0 50-22.43 50-50V70c0-38.598-31.402-70-70-70zm-73 34.335V269h-40v-10c0-5.522-4.477-10-10-10s-10 4.478-10 10v10h-46v-10c0-5.522-4.477-10-10-10s-10 4.478-10 10v10h-40v-10c0-5.522-4.477-10-10-10s-10 4.478-10 10v10h-46.048L369.001 34.335zM20.001 70c0-24.146 17.206-44.35 40-48.995V269h-10c-11.247 0-21.637 3.735-30 10.027V70zm442 279H52.141c-15.774 0-29.411-10.699-31.72-24.888a31.86 31.86 0 0 1-.42-5.112c0-16.542 13.458-30 30-30h20c5.523 0 10-4.478 10-10V60h235.494L105.891 271.969a10 10 0 0 0 7.11 17.031h266c5.523 0 10-4.478 10-10V60h43v219c0 5.522 4.477 10 10 10h17.86c15.774 0 29.411 10.699 31.72 24.888.279 1.71.42 3.431.42 5.112 0 16.542-13.458 30-30 30zm30-69.384c-8.943-6.659-20.172-10.616-32.14-10.616h-7.86V21.005c22.794 4.646 40 24.85 40 48.995v209.616z"></path>
    <path d="M322.828 148.611a10.007 10.007 0 0 0-10.898 2.168l-61.15 61.15A10 10 0 0 0 257.851 229h61.15c5.523 0 10-4.478 10-10v-61.15c0-4.045-2.437-7.691-6.173-9.239zM309.001 209h-27.008l27.008-27.008V209zm196.618 243.678l-54.54-21.18v.001l-48.46-18.82c-.041-.016-.084-.023-.125-.038a10.036 10.036 0 0 0-1.148-.352c-.065-.016-.129-.035-.194-.05a10.071 10.071 0 0 0-1.275-.194c-.103-.009-.206-.01-.309-.016-.19-.011-.377-.029-.569-.029h-349c-13.35 0-25.904 5.202-35.351 14.648C5.204 436.096.001 448.65.001 462c0 27.57 22.43 50 50 50H89.98l.028.002.034-.002h308.96c.321 0 .642-.018.963-.049.14-.013.277-.038.415-.057.175-.024.349-.046.523-.08.175-.034.346-.079.518-.122.133-.033.265-.063.397-.102.189-.055.372-.121.556-.187.081-.029.164-.051.245-.082l103-39.999a10 10 0 0 0 0-18.644zM75.219 492H50.001c-16.542 0-30-13.458-30-30 0-8.008 3.122-15.54 8.791-21.209C34.461 435.122 41.994 432 50.001 432h25.218a100.225 100.225 0 0 0 0 60zm304.341 0H96.453c-7.79-19.159-7.79-40.841 0-60H379.56c-4.65 9.19-7.129 19.402-7.129 30 0 10.598 2.478 20.81 7.129 30zm54.471-14.332l-32.139 12.481c-6.139-8.058-9.461-17.849-9.461-28.149s3.323-20.092 9.461-28.149l32.139 12.481c-1.705 5.471-2.03 10.704-2.03 15.668s.325 10.197 2.03 15.668zm18.724-7.271c-.538-2.29-.754-4.94-.754-8.397 0-3.456.217-6.106.754-8.396L474.376 462l-21.621 8.397z"></path>
    <path d="M339.001 452h-146c-5.523 0-10 4.478-10 10s4.477 10 10 10h146c5.523 0 10-4.478 10-10s-4.477-10-10-10zm-40-143h-146c-5.523 0-10 4.478-10 10s4.477 10 10 10h146c5.523 0 10-4.478 10-10s-4.477-10-10-10z"></path>
  </symbol>
</svg>

<!-- Usage -->
<svg class="icon">
  <use xlink:href="#data-cruncher"></use>
</svg>
<svg class="icon">
  <use xlink:href="#data-lake"></use>
</svg>
<svg class="icon">
  <use xlink:href="#exported-widgets"></use>
</svg>
<svg class="icon">
  <use xlink:href="#functions"></use>
</svg>
<svg class="icon">
  <use xlink:href="#help"></use>
</svg>
<svg class="icon">
  <use xlink:href="#settings"></use>
</svg>
<svg class="icon">
  <use xlink:href="#workspace"></use>
</svg>
