<svg width="0" height="0" class="hidden">
  <symbol xmlns="http://www.w3.org/2000/svg" viewBox="0 0 492 492" id="close">
    <path d="M300.188 246L484.14 62.04c5.06-5.064 7.852-11.82 7.86-19.024 0-7.208-2.792-13.972-7.86-19.028L468.02 7.872C462.952 2.796 456.196.016 448.984.016c-7.2 0-13.956 2.78-19.024 7.856L246.008 191.82 62.048 7.872C56.988 2.796 50.228.016 43.02.016c-7.2 0-13.96 2.78-19.02 7.856L7.872 23.988c-10.496 10.496-10.496 27.568 0 38.052L191.828 246 7.872 429.952C2.808 435.024.02 441.78.02 448.984c0 7.204 2.788 13.96 7.852 19.028l16.124 16.116c5.06 5.072 11.824 7.856 19.02 7.856 7.208 0 13.968-2.784 19.028-7.856l183.96-183.952 183.952 183.952c5.068 5.072 11.824 7.856 19.024 7.856h.008c7.204 0 13.96-2.784 19.028-7.856l16.12-16.116c5.06-5.064 7.852-11.824 7.852-19.028 0-7.204-2.792-13.96-7.852-19.028L300.188 246z"></path>
  </symbol>
  <symbol xmlns="http://www.w3.org/2000/svg" viewBox="0 0 363.477 363.477" id="collapse">
    <path d="M111.786 15.199l-10.524-.008c-7.64 0-13.852 6.212-13.852 13.852l.016 31.32-49.868-49.876c-.032-.024-.052-.048-.072-.072l-6.428-6.42c-5.404-5.408-14.108-5.284-19.516.124l-7.436 7.436c-5.124 5.132-5.436 13.26-.84 18.704.128.196.112.408.284.58l57.544 57.556-31.264-.048c-7.396 0-13.82 6.42-13.82 13.812v10.524c0 7.648 6.22 13.868 13.864 13.868h81.64c3.78 0 7.344-1.592 9.968-4.272 2.612-2.596 4.168-6.088 4.164-9.86l.004-83.36c.004-7.64-6.216-13.86-13.864-13.86zm247.556 317.08l-6.42-6.42-.072-.072-49.656-49.656 31.312.016c7.384 0 13.852-6.46 13.852-13.852l-.024-10.544c.008-7.64-6.228-13.876-13.868-13.868l-83.38-.032c-3.688.008-7.196 1.4-9.824 4.032l-.376.376c-2.532 2.54-3.936 6.048-3.936 9.728l.048 81.696c0 7.648 6.212 13.876 13.856 13.876l10.52.008c7.384.008 13.836-6.444 13.836-13.836l-.048-31.272 57.328 57.328c.18.18.5.268.696.4 5.444 4.6 13.688 4.396 18.812-.728l7.444-7.444c5.4-5.4 5.316-14.32-.1-19.736zm-237.268-90.045c-2.54-2.648-6.08-4.164-9.86-4.164h-83.36c-7.64-.008-13.864 6.212-13.86 13.852v10.532c-.004 3.688 1.432 7.156 4.06 9.78a13.689 13.689 0 0 0 9.776 4.056l31.292-.024-49.412 49.408-.064.064-5.588 5.584-.836.84c-5.408 5.408-5.58 14.476-.18 19.876l7.444 7.452c5.124 5.116 13.412 5.24 18.852.648.196-.132.564-.296.736-.468l57.084-57.084-.032 31.288c-.008 3.684 1.416 7.14 4.036 9.764 2.624 2.62 6.104 4.072 9.792 4.064l10.524.008c3.828 0 7.288-1.556 9.804-4.072a13.807 13.807 0 0 0 4.064-9.796v-81.64c0-3.78-1.516-7.319-4.272-9.968zM359.382 11.599l-7.452-7.452c-5.4-5.4-14.412-5.276-19.82.132l-6.42 6.42c-.032.024-.048.048-.072.072L275.89 60.495l.032-31.296c0-3.692-1.416-7.14-4.04-9.756-2.624-2.636-6.108-4.08-9.788-4.072l-10.532-.008c-7.648 0-13.864 6.22-13.864 13.868l.004 83.352c0 3.772 1.516 7.312 4.264 9.964a13.682 13.682 0 0 0 9.868 4.172h81.64c3.82 0 7.288-1.556 9.796-4.064 2.516-2.516 4.072-5.976 4.072-9.796v-10.524c0-3.696-1.44-7.164-4.064-9.788a13.712 13.712 0 0 0-9.772-4.056l-31.288.04 57.4-57.4c.172-.18.312-.516.444-.712 4.592-5.444 4.436-13.704-.68-18.82zM208.846 154.495c-15.004-14.992-39.396-14.992-54.392 0-14.996 14.992-14.996 39.392.004 54.392 14.992 14.992 39.392 14.992 54.388 0 14.992-14.992 14.992-39.4 0-54.392z"></path>
  </symbol>
  <symbol xmlns="http://www.w3.org/2000/svg" viewBox="0 0 357.18 357.18" id="expand">
    <path d="M123.292 96.7c-.128-.196-.112-.408-.284-.58L65.456 38.564l31.268.048c7.396 0 13.82-6.42 13.816-13.812l.004-10.524c0-7.648-6.22-13.868-13.864-13.868H15.04C11.264.408 7.7 2 5.072 4.68 2.464 7.276.908 10.768.908 14.54V97.9c-.004 7.64 6.216 13.86 13.86 13.86l10.528.008c7.636 0 13.848-6.212 13.852-13.852l-.02-31.32L89 116.472a.61.61 0 0 1 .072.072l6.428 6.42c5.404 5.408 14.104 5.284 19.512-.124l7.44-7.436c5.124-5.132 5.432-13.26.84-18.704zm233.84 164.184c0-7.648-6.212-13.876-13.856-13.876l-10.52-.008c-7.384-.008-13.836 6.444-13.836 13.836l.048 31.272-57.328-57.328c-.18-.18-.5-.268-.696-.4-5.444-4.6-13.688-4.396-18.812.728l-7.444 7.444c-5.4 5.4-5.316 14.32.1 19.736l6.42 6.42.072.072 49.656 49.656-31.312-.016c-7.384 0-13.852 6.46-13.852 13.852l.024 10.544c-.008 7.64 6.228 13.876 13.868 13.868l83.38.032c3.688-.008 7.196-1.4 9.824-4.032l.376-.376c2.532-2.54 3.936-6.048 3.936-9.728l-.048-81.696zm-234.824-18.08l-7.448-7.452c-5.12-5.116-13.412-5.24-18.852-.648-.196.132-.56.296-.736.468l-57.084 57.084.036-31.288a13.683 13.683 0 0 0-4.04-9.764c-2.624-2.62-6.104-4.072-9.792-4.064l-10.524-.008a13.806 13.806 0 0 0-9.8 4.072A13.793 13.793 0 0 0 0 261v81.64c0 3.78 1.52 7.32 4.272 9.968 2.544 2.648 6.084 4.164 9.86 4.164h83.36c7.644.008 13.864-6.212 13.864-13.852v-10.532a13.72 13.72 0 0 0-4.064-9.78 13.686 13.686 0 0 0-9.772-4.056l-31.296.024 49.412-49.404c.024-.024.044-.04.064-.064l5.584-5.584.84-.844c5.408-5.408 5.584-14.476.184-19.876zm234.04-228.228c0-3.772-1.516-7.312-4.264-9.964A13.682 13.682 0 0 0 342.216.44h-81.64c-3.82 0-7.288 1.556-9.796 4.064-2.516 2.516-4.072 5.976-4.072 9.796v10.524c0 3.696 1.44 7.164 4.064 9.788a13.712 13.712 0 0 0 9.772 4.056l31.288-.04-57.4 57.4c-.172.18-.312.516-.444.712-4.592 5.444-4.436 13.704.68 18.82l7.452 7.452c5.4 5.4 14.412 5.276 19.82-.132l6.42-6.42c.032-.024.048-.048.072-.072l49.728-49.724-.032 31.296c0 3.692 1.416 7.14 4.04 9.756 2.624 2.636 6.108 4.08 9.788 4.072l10.532.008c7.648 0 13.864-6.22 13.864-13.868l-.004-83.352zM205.732 151.704c-15.004-14.992-39.396-14.992-54.392 0-14.996 14.992-14.996 39.392.004 54.392 14.992 14.992 39.392 14.992 54.388 0 14.992-14.992 14.992-39.4 0-54.392z"></path>
  </symbol>
  <symbol viewBox="0 0 512 512" xmlns="http://www.w3.org/2000/svg" id="hide">
    <path d="M464 488H48a24 24 0 0 1-24-24V48a24 24 0 0 1 24-24h160a24 24 0 0 1 0 48H72v368h368V304a24 24 0 0 1 48 0v160a24 24 0 0 1-24 24zm16.971-456.971a24 24 0 0 0-33.942 0L344 134.059V168h33.941l103.03-103.029a24 24 0 0 0 0-33.942zM456 208a24 24 0 0 0-24-24H328V80a24 24 0 0 0-48 0v128a24 24 0 0 0 24 24h128a24 24 0 0 0 24-24z"></path>
  </symbol>
</svg>

<!-- Usage -->
<svg class="icon">
  <use xlink:href="#close"></use>
</svg>
<svg class="icon">
  <use xlink:href="#collapse"></use>
</svg>
<svg class="icon">
  <use xlink:href="#expand"></use>
</svg>
<svg class="icon">
  <use xlink:href="#hide"></use>
</svg>
