<?xml version="1.0" encoding="utf-8"?>
<svg version="1.1" xmlns:xlink="http://www.w3.org/1999/xlink" width="18px" height="18px" xmlns="http://www.w3.org/2000/svg">
  <g transform="matrix(1 0 0 1 -21 -21 )">
    <path d="M 30 21  C 35.04 21  39 24.96  39 30  C 39 35.04  35.04 39  30 39  C 24.96 39  21 35.04  21 30  C 21 24.96  24.96 21  30 21  Z " fill-rule="nonzero" fill="#ffffff" stroke="none" fill-opacity="0" />
    <path d="M 30 21.5  C 34.76 21.5  38.5 25.24  38.5 30  C 38.5 34.76  34.76 38.5  30 38.5  C 25.24 38.5  21.5 34.76  21.5 30  C 21.5 25.24  25.24 21.5  30 21.5  Z " stroke-width="1" stroke="#ffffff" fill="none" />
  </g>
</svg>