<?xml version="1.0" encoding="utf-8"?>
<svg version="1.1" xmlns:xlink="http://www.w3.org/1999/xlink" width="10px" height="17px" xmlns="http://www.w3.org/2000/svg">
  <g transform="matrix(1 0 0 1 -630 -22 )">
    <path d="M 9.70551724137931 14.8562032520325  L 3.36579310344828 8.50359349593496  L 9.71255172413793 2.14365853658537  C 9.88731034482759 1.9689593495935  9.98344827586207 1.73538211382114  9.98344827586207 1.48632520325203  C 9.98344827586207 1.23713008130081  9.88731034482759 1.00369105691057  9.71255172413793 0.828715447154472  L 9.15641379310345 0.271723577235772  C 8.98193103448276 0.0964715447154471  8.74868965517241 0  8.50013793103448 0  C 8.25158620689655 0  8.01862068965517 0.0964715447154471  7.844 0.271723577235772  L 0.287172413793104 7.84377235772358  C 0.111862068965517 8.01930081300813  0.0158620689655175 8.25384552845528  0.0165517241379312 8.50317886178862  C 0.0158620689655175 8.75361788617886  0.111724137931035 8.98788617886179  0.287172413793104 9.16355284552846  L 7.83696551724138 16.7282764227642  C 8.01158620689655 16.9035284552846  8.24455172413793 17  8.49324137931034 17  C 8.74179310344828 17  8.97475862068965 16.9035284552846  9.14951724137931 16.7282764227642  L 9.70551724137931 16.1712845528455  C 10.0673103448276 15.808756097561  10.0673103448276 15.218593495935  9.70551724137931 14.8562032520325  Z " fill-rule="nonzero" fill="#ffffff" stroke="none" transform="matrix(1 0 0 1 630 22 )" />
  </g>
</svg>